<!-- Layout from bacinger/f1-circuits, MIT licence, see LICENSE.md -->
<svg xmlns="http://www.w3.org/2000/svg" viewBox="0 0 100.0 88.0">
<path d="M27.2 77.7L19.9 79.5L18.6 79.6L17.0 79.6L15.6 79.2L14.6 78.7L13.3 77.9L12.4 77.1L11.6 76.1L11.1 75.0L10.7 73.9L10.6 72.7L10.7 71.3L10.8 70.3L11.2 69.3L11.7 68.4L12.5 67.7L14.3 66.9L16.0 66.9L17.3 67.4L17.8 67.9L18.2 68.6L18.2 69.4L17.9 70.7L17.4 72.6L17.3 73.3L17.6 74.1L18.3 75.0L19.6 75.5L21.0 75.2L21.8 74.7L22.3 73.8L22.7 73.0L23.2 71.9L23.4 70.7L23.5 69.2L23.3 68.0L22.6 66.7L22.1 65.9L20.6 64.1L16.7 59.9L13.7 56.0L11.2 53.3L8.1 49.7L7.1 48.1L6.7 46.9L3.5 37.4L2.4 34.6L1.5 31.8L1.5 31.1L1.9 30.6L2.7 30.2L4.1 30.5L5.5 31.4L6.7 32.4L7.9 33.7L9.6 35.4L11.1 37.6L13.7 42.1L17.1 48.2L18.2 49.9L19.3 51.3L20.6 52.5L22.1 53.3L23.6 53.8L25.2 54.2L27.1 54.2L28.7 53.8L30.3 53.3L31.9 52.3L33.5 51.0L34.7 49.6L36.0 46.8L38.0 42.6L38.8 41.3L39.7 40.4L40.8 39.8L42.5 39.1L44.0 38.9L45.3 39.1L46.6 39.5L47.6 40.2L48.4 40.8L49.0 41.6L52.3 48.0L53.1 48.9L54.1 49.1L55.1 49.0L55.9 48.6L59.2 44.3L59.6 43.4L59.6 42.6L59.4 41.8L51.3 28.1L46.3 20.0L40.8 10.9L40.0 10.6L39.2 10.8L38.5 11.5L37.7 12.4L36.9 13.4L36.1 13.9L35.2 14.2L34.2 14.0L33.2 13.2L32.1 11.9L31.5 10.8L31.1 9.9L31.0 8.5L31.1 7.2L31.3 5.9L31.7 4.8L32.8 3.4L33.8 2.6L35.2 1.9L36.7 1.6L37.9 1.5L39.4 1.6L41.3 2.0L42.5 2.6L43.8 3.3L45.6 4.9L47.2 7.1L64.1 33.0L74.6 49.0L80.1 57.3L84.9 64.8L91.3 74.3L98.1 84.3L98.5 85.1L98.5 86.0L97.9 86.5L96.9 86.5L95.0 85.6L93.9 84.8L92.7 83.9L79.6 66.0L79.1 65.7L78.0 65.6L61.6 69.5L27.2 77.7Z" fill="none" stroke="#000" stroke-width="3" stroke-linejoin="round" stroke-linecap="round"/>
</svg>
