<!-- Layout from bacinger/f1-circuits, MIT licence, see LICENSE.md -->
<svg xmlns="http://www.w3.org/2000/svg" viewBox="0 0 62.8 100.0">
<path d="M19.6 11.8L14.2 2.5L14.2 2.0L14.4 1.7L14.9 1.5L15.4 1.7L17.2 2.5L21.5 4.6L23.5 5.8L25.6 7.4L27.6 9.0L29.1 10.7L37.2 20.4L37.8 20.9L38.8 21.5L40.5 22.7L41.3 23.4L42.0 24.5L42.4 25.4L42.6 26.5L42.9 28.4L43.0 29.1L43.3 29.8L43.7 30.6L47.7 37.0L50.3 41.1L51.0 42.7L51.5 43.8L52.0 45.6L55.2 56.8L60.1 73.9L61.3 78.0L61.3 78.6L61.2 79.4L60.8 80.0L60.3 80.5L59.5 80.9L59.1 81.3L58.8 81.8L58.6 82.5L58.6 83.3L59.6 87.7L59.6 88.4L59.4 89.1L58.9 89.9L58.2 90.4L47.0 98.2L46.3 98.5L45.6 98.5L44.8 98.3L44.2 97.8L43.8 97.2L43.6 96.6L43.6 95.9L43.8 95.2L44.2 94.6L44.8 94.1L49.7 91.1L50.2 90.5L50.5 90.0L50.6 89.3L50.6 88.5L48.5 82.6L47.9 80.1L46.5 72.6L45.7 68.3L45.6 67.6L45.2 66.8L44.8 66.1L44.0 65.4L43.3 64.9L42.4 64.6L41.5 64.4L38.5 64.2L37.4 64.3L36.4 64.6L35.4 65.1L34.5 65.7L33.5 66.6L32.9 67.5L32.2 68.8L29.4 75.7L26.9 81.9L26.4 82.9L25.8 83.6L24.9 84.0L24.0 84.3L23.2 84.3L22.4 84.1L21.7 83.8L20.6 83.1L19.8 82.8L18.9 82.6L18.0 82.7L17.2 83.0L16.5 83.5L16.0 84.0L15.5 84.8L10.9 92.0L10.5 92.4L9.9 92.7L9.2 92.8L8.5 92.8L7.8 92.5L4.8 90.2L2.9 88.9L2.5 88.3L2.0 87.6L1.7 86.9L1.5 86.1L1.5 85.3L1.6 84.2L2.0 83.4L2.4 82.3L3.0 80.6L4.0 78.7L5.2 77.0L7.0 75.0L9.9 72.2L11.7 70.8L13.2 69.9L20.8 66.0L21.9 65.3L22.9 64.5L23.9 63.6L24.7 62.6L25.5 61.5L26.5 59.6L27.3 57.8L29.2 53.6L29.6 52.7L29.8 51.7L29.8 50.5L29.6 49.3L28.5 46.5L27.3 43.3L25.8 39.3L25.4 37.8L25.1 36.1L24.8 34.5L24.7 33.1L24.3 26.7L24.3 26.3L24.6 26.0L25.0 25.9L25.7 26.0L26.4 26.0L26.8 25.9L27.1 25.5L27.2 25.1L27.0 24.6L24.6 20.6L19.6 11.8Z" fill="none" stroke="#000" stroke-width="3" stroke-linejoin="round" stroke-linecap="round"/>
</svg>
